<mxfile host="app.diagrams.net" modified="2023-10-23T14:10:03.394Z" agent="Mozilla/5.0 (Windows NT 10.0; Win64; x64) AppleWebKit/537.36 (KHTML, like Gecko) Chrome/118.0.0.0 Safari/537.36" version="22.0.6" etag="CKE_TNd2uyxSh402DRyq" type="github">
  <diagram name="Page-1" id="Jbig46ARiVlTJiXCcBgY">
    <mxGraphModel>
      <root>
        <mxCell id="0" />
        <mxCell id="1" parent="0" />
      </root>
    </mxGraphModel>
  </diagram>
</mxfile>
